<?xml version="1.0" standalone="no"?>
<!DOCTYPE svg PUBLIC "-//W3C//DTD SVG 20010904//EN"
 "http://www.w3.org/TR/2001/REC-SVG-20010904/DTD/svg10.dtd">
<svg version="1.0" xmlns="http://www.w3.org/2000/svg"
 width="1984.000000pt" height="1984.000000pt" viewBox="0 0 1984.000000 1984.000000"
 preserveAspectRatio="xMidYMid meet">
<metadata>
Created by potrace 1.14, written by Peter Selinger 2001-2017
</metadata>
<g transform="translate(0.000000,1984.000000) scale(0.100000,-0.100000)"
fill="#000000" stroke="none">
<path d="M17010 13963 c-8 -3 -127 -47 -265 -98 -137 -51 -331 -123 -430 -160
-99 -37 -317 -118 -485 -180 -168 -63 -440 -164 -605 -225 -165 -62 -412 -154
-550 -205 -137 -51 -329 -122 -425 -158 -174 -65 -417 -155 -830 -309 -398
-148 -644 -239 -820 -305 -273 -101 -586 -218 -815 -303 -516 -192 -646 -240
-655 -240 -7 0 -10 -265 -10 -750 l0 -750 -1030 0 -1030 0 0 804 0 804 -137
-48 c-76 -27 -235 -83 -353 -125 -118 -42 -258 -92 -310 -110 -52 -18 -185
-65 -295 -105 -110 -39 -249 -89 -310 -110 -60 -21 -135 -47 -165 -58 -30 -12
-126 -46 -212 -77 -87 -30 -227 -80 -310 -109 -84 -30 -256 -91 -383 -136
-126 -45 -299 -106 -383 -136 -221 -78 -440 -156 -620 -220 -86 -30 -256 -91
-377 -134 -294 -105 -464 -165 -1495 -530 -283 -100 -530 -188 -547 -196 l-33
-13 0 -1845 c0 -1137 4 -1847 9 -1851 6 -3 79 19 163 49 197 70 570 202 768
272 85 30 180 64 210 76 30 11 105 37 165 58 61 21 200 71 310 110 110 39 243
87 295 105 52 18 192 68 310 110 118 42 258 92 310 110 52 18 192 68 310 110
335 119 517 184 620 220 52 18 183 65 290 103 107 38 355 126 550 195 195 69
452 160 570 202 118 42 258 92 310 110 52 18 192 68 310 110 118 42 262 93
320 113 l105 37 3 863 2 862 1030 0 1030 0 2 -918 3 -919 130 49 c72 26 171
63 220 82 50 19 151 57 225 84 204 76 467 173 745 277 138 51 331 123 430 160
99 37 295 110 435 162 140 52 316 117 390 145 74 27 266 99 425 158 160 59
351 131 425 158 74 28 250 93 390 145 140 52 334 124 430 160 164 61 290 108
825 307 118 44 313 116 433 161 119 44 261 97 314 117 l98 37 0 1853 c0 1018
-3 1852 -7 1851 -5 0 -15 -3 -23 -6z m-1455 -1330 c-6 -17 -257 -495 -550
-1047 -69 -131 -125 -242 -123 -246 2 -5 152 -177 334 -382 408 -460 397 -448
393 -452 -6 -6 -228 -86 -237 -86 -5 0 -145 155 -311 345 -166 190 -306 345
-309 345 -4 0 -37 -57 -74 -128 -37 -70 -175 -329 -307 -577 l-240 -450 -98
-36 c-162 -60 -152 -64 -100 32 56 105 161 303 380 714 93 176 201 378 239
448 62 114 68 130 55 145 -7 9 -164 189 -347 400 -182 211 -330 385 -328 387
5 5 199 76 224 82 21 5 34 -9 488 -525 54 -61 102 -112 107 -112 8 0 73 121
392 725 l184 350 109 42 c128 48 128 48 119 26z m-1867 -775 l-3 -92 -190 -71
c-104 -39 -284 -106 -400 -149 -115 -43 -247 -91 -292 -108 l-83 -31 0 -395
c0 -371 1 -394 18 -387 9 4 139 52 287 107 149 56 342 128 430 161 228 85 206
87 203 -23 l-3 -92 -170 -63 c-93 -35 -303 -113 -465 -173 l-295 -110 -3 -406
c-1 -223 0 -406 2 -406 3 0 51 18 108 39 98 38 616 231 781 291 l77 29 0 -94
c0 -79 -3 -94 -17 -100 -21 -8 -544 -203 -743 -277 -74 -27 -194 -72 -265 -99
-72 -27 -136 -49 -143 -49 -9 0 -12 224 -12 1078 l0 1079 333 123 c182 69 442
166 577 216 135 51 251 93 258 93 10 1 12 -21 10 -91z m-5783 -1273 c39 -8
112 -35 165 -62 164 -82 289 -229 345 -406 16 -49 25 -102 25 -142 0 -35 5
-67 10 -70 6 -3 10 -46 10 -94 0 -539 -423 -1166 -972 -1442 -431 -216 -855
-188 -1105 72 -157 165 -233 419 -204 685 71 636 635 1287 1253 1445 159 40
321 45 473 14z m-2405 -852 c141 -29 268 -109 350 -221 27 -36 47 -69 45 -72
-2 -3 -54 -23 -117 -45 l-113 -38 -57 57 c-102 101 -226 142 -408 133 -285
-13 -577 -159 -815 -408 -251 -263 -385 -576 -385 -899 0 -465 331 -735 785
-641 313 65 595 270 811 591 l84 124 108 37 c59 21 108 36 110 34 6 -6 -82
-172 -135 -255 -217 -334 -504 -568 -842 -684 -289 -100 -543 -102 -749 -6
-423 198 -514 813 -208 1405 81 157 165 274 295 408 364 377 845 563 1241 480z"/>
<path d="M7457 10384 c-471 -105 -899 -538 -1044 -1054 -14 -51 -18 -102 -18
-235 0 -151 3 -178 23 -240 54 -162 159 -288 297 -356 134 -66 273 -83 440
-54 227 40 440 155 638 345 297 284 471 665 454 990 -7 126 -26 201 -74 297
-69 138 -173 228 -326 285 -71 26 -98 31 -202 34 -83 3 -141 -1 -188 -12z"/>
</g>
</svg>
